<mxfile host="app.diagrams.net" agent="Mozilla/5.0 (Macintosh; Intel Mac OS X 10_15_7) AppleWebKit/537.36 (KHTML, like Gecko) Chrome/133.0.0.0 Safari/537.36" version="26.0.13">
  <diagram name="第 1 页" id="9RK9nbPZW3g5A10vmvpH">
    <mxGraphModel dx="1002" dy="730" grid="1" gridSize="10" guides="1" tooltips="1" connect="1" arrows="1" fold="1" page="1" pageScale="1" pageWidth="1654" pageHeight="2336" math="0" shadow="0">
      <root>
        <mxCell id="0" />
        <mxCell id="1" parent="0" />
        <mxCell id="6VRMfmL04QLUToL5H6Mg-19" value="" style="endArrow=none;dashed=1;html=1;rounded=0;strokeColor=#4D4D4D;" edge="1" parent="1">
          <mxGeometry width="50" height="50" relative="1" as="geometry">
            <mxPoint x="890" y="720" as="sourcePoint" />
            <mxPoint x="890" y="110" as="targetPoint" />
          </mxGeometry>
        </mxCell>
        <mxCell id="6VRMfmL04QLUToL5H6Mg-18" value="" style="endArrow=none;dashed=1;html=1;rounded=0;strokeColor=#4D4D4D;" edge="1" parent="1">
          <mxGeometry width="50" height="50" relative="1" as="geometry">
            <mxPoint x="679.5" y="730" as="sourcePoint" />
            <mxPoint x="679.5" y="120" as="targetPoint" />
          </mxGeometry>
        </mxCell>
        <mxCell id="6VRMfmL04QLUToL5H6Mg-17" value="" style="endArrow=none;dashed=1;html=1;rounded=0;strokeColor=#4D4D4D;" edge="1" parent="1">
          <mxGeometry width="50" height="50" relative="1" as="geometry">
            <mxPoint x="430" y="730" as="sourcePoint" />
            <mxPoint x="430" y="120" as="targetPoint" />
          </mxGeometry>
        </mxCell>
        <mxCell id="6VRMfmL04QLUToL5H6Mg-16" value="" style="endArrow=none;dashed=1;html=1;rounded=0;strokeColor=#4D4D4D;strokeWidth=1;" edge="1" parent="1" target="6VRMfmL04QLUToL5H6Mg-5">
          <mxGeometry width="50" height="50" relative="1" as="geometry">
            <mxPoint x="155" y="740" as="sourcePoint" />
            <mxPoint x="165" y="440" as="targetPoint" />
          </mxGeometry>
        </mxCell>
        <mxCell id="6VRMfmL04QLUToL5H6Mg-1" value="&amp;nbsp;打印流程图" style="text;html=1;align=center;verticalAlign=middle;resizable=0;points=[];autosize=1;strokeColor=none;fillColor=none;fontStyle=1;fontSize=15;" vertex="1" parent="1">
          <mxGeometry x="65" y="38" width="100" height="30" as="geometry" />
        </mxCell>
        <mxCell id="6VRMfmL04QLUToL5H6Mg-4" value="" style="edgeStyle=orthogonalEdgeStyle;rounded=0;orthogonalLoop=1;jettySize=auto;html=1;" edge="1" parent="1" source="6VRMfmL04QLUToL5H6Mg-2" target="6VRMfmL04QLUToL5H6Mg-3">
          <mxGeometry relative="1" as="geometry" />
        </mxCell>
        <mxCell id="6VRMfmL04QLUToL5H6Mg-2" value="选择文件(图片、文档)" style="strokeWidth=2;html=1;shape=mxgraph.flowchart.multi-document;whiteSpace=wrap;" vertex="1" parent="1">
          <mxGeometry x="77" y="180" width="173" height="80" as="geometry" />
        </mxCell>
        <mxCell id="6VRMfmL04QLUToL5H6Mg-11" value="" style="edgeStyle=orthogonalEdgeStyle;rounded=0;orthogonalLoop=1;jettySize=auto;html=1;" edge="1" parent="1" source="6VRMfmL04QLUToL5H6Mg-3" target="6VRMfmL04QLUToL5H6Mg-10">
          <mxGeometry relative="1" as="geometry" />
        </mxCell>
        <mxCell id="6VRMfmL04QLUToL5H6Mg-3" value="选择智慧生活打印" style="whiteSpace=wrap;html=1;strokeWidth=2;" vertex="1" parent="1">
          <mxGeometry x="103.5" y="330" width="120" height="60" as="geometry" />
        </mxCell>
        <mxCell id="6VRMfmL04QLUToL5H6Mg-5" value="手机文件" style="text;html=1;align=center;verticalAlign=middle;resizable=0;points=[];autosize=1;strokeColor=none;fillColor=none;" vertex="1" parent="1">
          <mxGeometry x="120" y="100" width="70" height="30" as="geometry" />
        </mxCell>
        <mxCell id="6VRMfmL04QLUToL5H6Mg-7" value="智慧生活" style="text;html=1;align=center;verticalAlign=middle;resizable=0;points=[];autosize=1;strokeColor=none;fillColor=none;" vertex="1" parent="1">
          <mxGeometry x="400" y="100" width="70" height="30" as="geometry" />
        </mxCell>
        <mxCell id="6VRMfmL04QLUToL5H6Mg-8" value="奔图插件" style="text;html=1;align=center;verticalAlign=middle;resizable=0;points=[];autosize=1;strokeColor=none;fillColor=none;" vertex="1" parent="1">
          <mxGeometry x="645" y="98" width="70" height="30" as="geometry" />
        </mxCell>
        <mxCell id="6VRMfmL04QLUToL5H6Mg-9" value="奔图快应用" style="text;html=1;align=center;verticalAlign=middle;resizable=0;points=[];autosize=1;strokeColor=none;fillColor=none;" vertex="1" parent="1">
          <mxGeometry x="850" y="98" width="80" height="30" as="geometry" />
        </mxCell>
        <mxCell id="6VRMfmL04QLUToL5H6Mg-14" value="" style="edgeStyle=orthogonalEdgeStyle;rounded=0;orthogonalLoop=1;jettySize=auto;html=1;" edge="1" parent="1" source="6VRMfmL04QLUToL5H6Mg-10" target="6VRMfmL04QLUToL5H6Mg-13">
          <mxGeometry relative="1" as="geometry" />
        </mxCell>
        <mxCell id="6VRMfmL04QLUToL5H6Mg-10" value="智慧生活获取文件" style="whiteSpace=wrap;html=1;strokeWidth=2;" vertex="1" parent="1">
          <mxGeometry x="375" y="330" width="120" height="60" as="geometry" />
        </mxCell>
        <mxCell id="6VRMfmL04QLUToL5H6Mg-12" value="将文件传地址传给" style="text;html=1;align=center;verticalAlign=middle;resizable=0;points=[];autosize=1;strokeColor=none;fillColor=none;" vertex="1" parent="1">
          <mxGeometry x="245" y="330" width="120" height="30" as="geometry" />
        </mxCell>
        <mxCell id="6VRMfmL04QLUToL5H6Mg-13" value="接收文件" style="whiteSpace=wrap;html=1;strokeWidth=2;" vertex="1" parent="1">
          <mxGeometry x="620" y="330" width="120" height="60" as="geometry" />
        </mxCell>
        <mxCell id="6VRMfmL04QLUToL5H6Mg-15" value="将文件传给插件" style="text;html=1;align=center;verticalAlign=middle;resizable=0;points=[];autosize=1;strokeColor=none;fillColor=none;" vertex="1" parent="1">
          <mxGeometry x="495" y="330" width="110" height="30" as="geometry" />
        </mxCell>
        <mxCell id="6VRMfmL04QLUToL5H6Mg-20" value="分享或者打印" style="text;html=1;align=center;verticalAlign=middle;resizable=0;points=[];autosize=1;strokeColor=none;fillColor=none;" vertex="1" parent="1">
          <mxGeometry x="165" y="278" width="100" height="30" as="geometry" />
        </mxCell>
        <mxCell id="6VRMfmL04QLUToL5H6Mg-24" value="" style="edgeStyle=orthogonalEdgeStyle;rounded=0;orthogonalLoop=1;jettySize=auto;html=1;" edge="1" parent="1" source="6VRMfmL04QLUToL5H6Mg-22" target="6VRMfmL04QLUToL5H6Mg-23">
          <mxGeometry relative="1" as="geometry" />
        </mxCell>
        <mxCell id="6VRMfmL04QLUToL5H6Mg-25" value="通知快应用" style="edgeLabel;html=1;align=center;verticalAlign=middle;resizable=0;points=[];" vertex="1" connectable="0" parent="6VRMfmL04QLUToL5H6Mg-24">
          <mxGeometry x="-0.2" y="9" relative="1" as="geometry">
            <mxPoint as="offset" />
          </mxGeometry>
        </mxCell>
        <mxCell id="6VRMfmL04QLUToL5H6Mg-22" value="将文件上传奔图云" style="whiteSpace=wrap;html=1;" vertex="1" parent="1">
          <mxGeometry x="620" y="440" width="120" height="60" as="geometry" />
        </mxCell>
        <mxCell id="6VRMfmL04QLUToL5H6Mg-23" value="获取通知后拉取云端文件预览" style="whiteSpace=wrap;html=1;" vertex="1" parent="1">
          <mxGeometry x="830" y="440" width="120" height="60" as="geometry" />
        </mxCell>
        <mxCell id="6VRMfmL04QLUToL5H6Mg-26" value="打印文件" style="whiteSpace=wrap;html=1;" vertex="1" parent="1">
          <mxGeometry x="830" y="530" width="120" height="60" as="geometry" />
        </mxCell>
      </root>
    </mxGraphModel>
  </diagram>
</mxfile>
